<?xml version="1.0" encoding="utf-8"?>
<!-- Generator: Adobe Illustrator 24.0.3, SVG Export Plug-In . SVG Version: 6.00 Build 0)  -->
<svg version="1.1" id="图层_1" xmlns="http://www.w3.org/2000/svg" xmlns:xlink="http://www.w3.org/1999/xlink" x="0px" y="0px"
	 viewBox="0 0 129.7 40.3" style="enable-background:new 0 0 129.7 40.3;" xml:space="preserve">
<style type="text/css">
	.st0{fill:#E60012;}
</style>
<path d="M104.5,19c-0.6,0.7-1,1.3-1.4,1.8c-1.6-0.7-3-1.6-4.3-2.7v1.4h-6.1v2.7H103V24H80.4v-1.7h10.4v-2.7h-6.2v-1.4
	c-1.4,1.1-2.8,2.1-4.2,3c-0.3-0.5-0.8-1-1.3-1.6c2.6-1.3,4.9-2.9,6.8-4.9h-6.5V13h5.1V4.4h-4.3V2.8h4.3V0h1.9v2.8h10.9V0h1.9v2.8
	h4.3v1.7h-4.3V13h5v1.7h-6.7C99.4,16.6,101.7,18,104.5,19L104.5,19z M90.8,15.5h1.9V18h5.9c-1.2-1-2.3-2.1-3.3-3.3h-7
	C87.1,15.9,86,17,84.8,18h5.9V15.5z M86.3,6.2h10.9V4.4H86.3V6.2z M86.3,9.6h10.9V7.8H86.3V9.6z M86.3,13h10.9v-1.8H86.3V13z"/>
<path d="M105.8,22.1h10.3v-6.2h-9V14h9v-3.6h-6.5V8.7c-1.2,0.8-2.5,1.5-3.9,2.3c-0.4-0.6-0.8-1.3-1.3-1.9C110,6.4,114,3.4,116.3,0
	h2.7l-0.6,0.7c2.7,3.4,6.4,6.1,11.3,8c-0.5,0.6-0.9,1.3-1.3,2c-1.3-0.6-2.6-1.2-3.8-2v1.7h-6.5V14h8.9v1.8h-8.9v6.2h10.3v1.9h-22.6
	L105.8,22.1L105.8,22.1z M108.3,17.4l1.5-1.2c1.2,1.2,2.4,2.6,3.6,3.9l-1.7,1.4C110.6,20.2,109.5,18.8,108.3,17.4L108.3,17.4z
	 M117.1,2.2c-1.7,2.2-4.2,4.3-7.5,6.5h14.7C121.8,7,119.4,4.8,117.1,2.2z M120.7,20.3c1.4-1.4,2.5-2.8,3.4-4.2l1.8,1.1
	c-1.2,1.5-2.4,2.9-3.7,4.2L120.7,20.3z"/>
<path d="M81.3,32.4v-4.8H79v-0.6h5.6v0.6h-2.3v4.8H81.3z"/>
<path d="M85.5,32.4v-5.4h0.9v5.4H85.5z"/>
<path d="M87.1,32.4l2.7-5.4h1l2.9,5.4h-1.1l-0.8-1.7h-2.9L88,32.4H87.1z M89.1,30.1h2.4l-0.7-1.5c-0.2-0.5-0.4-0.8-0.5-1.1
	c-0.1,0.3-0.2,0.7-0.4,1L89.1,30.1z"/>
<path d="M94.2,32.4v-5.4h0.9l3.7,4.3v-4.3h0.9v5.4h-0.9l-3.7-4.3v4.3H94.2z"/>
<path d="M101.1,32.4v-5.4h0.9v2.2h3.6v-2.2h0.9v5.4h-0.9v-2.6H102v2.6H101.1z"/>
<path d="M107.6,29.7c0-0.9,0.3-1.6,0.9-2.1c0.6-0.5,1.4-0.8,2.4-0.8c0.6,0,1.2,0.1,1.8,0.4s0.9,0.6,1.2,1s0.4,0.9,0.4,1.5
	c0,0.6-0.1,1-0.4,1.5c-0.3,0.4-0.7,0.8-1.2,1s-1.1,0.3-1.7,0.3c-0.7,0-1.2-0.1-1.8-0.4c-0.5-0.2-0.9-0.6-1.2-1
	C107.8,30.6,107.6,30.2,107.6,29.7L107.6,29.7z M108.6,29.7c0,0.7,0.2,1.2,0.7,1.6s1,0.6,1.7,0.6c0.7,0,1.3-0.2,1.7-0.6
	s0.7-0.9,0.7-1.6c0-0.4-0.1-0.8-0.3-1.2s-0.5-0.6-0.9-0.8c-0.4-0.2-0.8-0.3-1.2-0.3c-0.7,0-1.2,0.2-1.7,0.5
	C108.8,28.3,108.6,28.9,108.6,29.7z"/>
<path d="M115.3,32.4v-5.4h0.9l3.7,4.3v-4.3h0.9v5.4h-0.9l-3.7-4.3v4.3H115.3z"/>
<path d="M125.4,30.2v-0.6h3v2c-0.5,0.3-0.9,0.5-1.4,0.6c-0.5,0.1-1,0.2-1.5,0.2c-0.7,0-1.3-0.1-1.9-0.3c-0.6-0.2-1-0.6-1.3-1
	s-0.4-0.9-0.4-1.4s0.1-1,0.4-1.5c0.3-0.5,0.7-0.8,1.2-1c0.5-0.2,1.1-0.3,1.9-0.3c0.5,0,1,0.1,1.4,0.2s0.7,0.3,1,0.5s0.4,0.5,0.5,0.9
	l-0.8,0.2c-0.1-0.3-0.2-0.5-0.4-0.7s-0.4-0.3-0.7-0.4c-0.3-0.1-0.6-0.2-1-0.2c-0.4,0-0.8,0.1-1.1,0.2s-0.6,0.2-0.8,0.4
	s-0.3,0.3-0.4,0.5c-0.2,0.3-0.3,0.7-0.3,1.1c0,0.5,0.1,0.9,0.3,1.2c0.2,0.3,0.5,0.6,0.9,0.7s0.9,0.2,1.3,0.2c0.4,0,0.8-0.1,1.2-0.2
	s0.7-0.2,0.9-0.4v-1L125.4,30.2z"/>
<path d="M80.4,36.6l1.3-2.8h0.5l1.4,2.8H83l-0.4-0.8h-1.4l-0.4,0.8H80.4z M81.3,35.5h1.1l-0.3-0.8c-0.1-0.2-0.2-0.4-0.2-0.6
	c0,0.2-0.1,0.4-0.2,0.5L81.3,35.5z"/>
<path d="M83.6,35.7l0.4,0c0,0.1,0.1,0.2,0.1,0.3c0.1,0.1,0.2,0.2,0.3,0.2s0.3,0.1,0.5,0.1c0.2,0,0.3,0,0.4-0.1s0.2-0.1,0.3-0.2
	s0.1-0.2,0.1-0.2c0-0.1,0-0.2-0.1-0.2c-0.1-0.1-0.2-0.1-0.3-0.2c-0.1,0-0.3-0.1-0.6-0.1s-0.5-0.1-0.6-0.2c-0.2-0.1-0.3-0.2-0.4-0.3
	c-0.1-0.1-0.1-0.2-0.1-0.3c0-0.1,0.1-0.3,0.1-0.4c0.1-0.1,0.2-0.2,0.4-0.3c0.2-0.1,0.4-0.1,0.6-0.1c0.2,0,0.5,0,0.6,0.1
	s0.3,0.2,0.4,0.3c0.1,0.1,0.1,0.3,0.2,0.4l-0.4,0c0-0.2-0.1-0.3-0.2-0.4s-0.3-0.1-0.6-0.1c-0.3,0-0.5,0-0.6,0.1
	c-0.1,0.1-0.2,0.2-0.2,0.3c0,0.1,0,0.2,0.1,0.2c0.1,0.1,0.3,0.1,0.7,0.2c0.4,0.1,0.6,0.1,0.7,0.2c0.2,0.1,0.3,0.2,0.4,0.3
	s0.1,0.2,0.1,0.4s-0.1,0.3-0.1,0.4s-0.2,0.2-0.4,0.3c-0.2,0.1-0.4,0.1-0.6,0.1c-0.3,0-0.6,0-0.8-0.1s-0.4-0.2-0.5-0.3
	C83.6,36.1,83.6,35.9,83.6,35.7L83.6,35.7z"/>
<path d="M86.4,35.7l0.4,0c0,0.1,0.1,0.2,0.1,0.3s0.2,0.2,0.3,0.2s0.3,0.1,0.5,0.1c0.2,0,0.3,0,0.4-0.1s0.2-0.1,0.3-0.2
	s0.1-0.2,0.1-0.2c0-0.1,0-0.2-0.1-0.2c-0.1-0.1-0.2-0.1-0.3-0.2c-0.1,0-0.3-0.1-0.6-0.1s-0.5-0.1-0.6-0.2c-0.2-0.1-0.3-0.2-0.4-0.3
	c-0.1-0.1-0.1-0.2-0.1-0.3c0-0.1,0.1-0.3,0.1-0.4s0.2-0.2,0.4-0.3c0.2-0.1,0.4-0.1,0.6-0.1c0.2,0,0.5,0,0.6,0.1s0.3,0.2,0.4,0.3
	c0.1,0.1,0.1,0.3,0.2,0.4l-0.4,0c0-0.2-0.1-0.3-0.2-0.4s-0.3-0.1-0.6-0.1c-0.3,0-0.5,0-0.6,0.1s-0.2,0.2-0.2,0.3
	c0,0.1,0,0.2,0.1,0.2c0.1,0.1,0.3,0.1,0.7,0.2s0.6,0.1,0.7,0.2c0.2,0.1,0.3,0.2,0.4,0.3s0.1,0.2,0.1,0.4s-0.1,0.3-0.1,0.4
	s-0.2,0.2-0.4,0.3c-0.2,0.1-0.4,0.1-0.6,0.1c-0.3,0-0.6,0-0.8-0.1s-0.4-0.2-0.5-0.3C86.5,36.1,86.4,35.9,86.4,35.7L86.4,35.7z"/>
<path d="M89.4,36.6v-2.8h2.4v0.3h-1.9V35h1.8v0.3h-1.8v0.9h2v0.3L89.4,36.6z"/>
<path d="M93.2,36.6v-2.4h-1.1v-0.3h2.6v0.3h-1.1v2.4H93.2z"/>
<path d="M96.7,36.6v-2.8h0.7l0.8,2c0.1,0.2,0.1,0.3,0.2,0.4c0-0.1,0.1-0.2,0.2-0.4l0.8-1.9h0.6v2.8h-0.4v-2.3l-1,2.3h-0.4l-0.9-2.4
	v2.4H96.7z"/>
<path d="M100.1,36.6l1.3-2.8h0.5l1.4,2.8h-0.5l-0.4-0.8h-1.4l-0.4,0.8H100.1z M101,35.5h1.1l-0.3-0.8c-0.1-0.2-0.2-0.4-0.2-0.6
	c0,0.2-0.1,0.4-0.2,0.5L101,35.5z"/>
<path d="M103.4,36.6v-2.8h0.4l1.7,2.2v-2.2h0.4v2.8h-0.4l-1.7-2.2v2.2H103.4z"/>
<path d="M106.2,36.6l1.3-2.8h0.5l1.4,2.8h-0.5l-0.4-0.8h-1.4l-0.4,0.8H106.2z M107.2,35.5h1.1l-0.3-0.8c-0.1-0.2-0.2-0.4-0.2-0.6
	c0,0.2-0.1,0.4-0.2,0.5L107.2,35.5z"/>
<path d="M111.1,35.5v-0.3h1.4v1c-0.2,0.1-0.4,0.2-0.7,0.3c-0.2,0.1-0.5,0.1-0.7,0.1c-0.3,0-0.6-0.1-0.9-0.2
	c-0.3-0.1-0.5-0.3-0.6-0.5s-0.2-0.5-0.2-0.7c0-0.3,0.1-0.5,0.2-0.8s0.3-0.4,0.6-0.5s0.5-0.2,0.9-0.2c0.2,0,0.4,0,0.6,0.1
	c0.2,0.1,0.3,0.2,0.4,0.3c0.1,0.1,0.2,0.3,0.2,0.4l-0.4,0.1c-0.1-0.1-0.1-0.2-0.2-0.3c-0.1-0.1-0.2-0.2-0.3-0.2s-0.3-0.1-0.4-0.1
	c-0.2,0-0.4,0-0.5,0.1c-0.1,0.1-0.3,0.1-0.4,0.2s-0.2,0.2-0.2,0.3c-0.1,0.2-0.1,0.4-0.1,0.6c0,0.2,0.1,0.4,0.1,0.6
	c0.1,0.2,0.2,0.3,0.4,0.4s0.4,0.1,0.6,0.1c0.2,0,0.4,0,0.6-0.1c0.2-0.1,0.3-0.1,0.4-0.2v-0.5L111.1,35.5L111.1,35.5z"/>
<path d="M113,36.6v-2.8h2.4v0.3h-1.9V35h1.8v0.3h-1.8v0.9h2v0.3L113,36.6z"/>
<path d="M116.1,36.6v-2.8h0.6l0.8,2c0.1,0.2,0.1,0.3,0.2,0.4c0-0.1,0.1-0.2,0.2-0.4l0.8-1.9h0.6v2.8h-0.4v-2.3l-1,2.3h-0.4l-1-2.4
	v2.4H116.1z"/>
<path d="M119.8,36.6v-2.8h2.4v0.3h-1.9V35h1.8v0.3h-1.8v0.9h2v0.3L119.8,36.6z"/>
<path d="M122.8,36.6v-2.8h0.4L125,36v-2.2h0.4v2.8h-0.4l-1.7-2.2v2.2H122.8z"/>
<path d="M126.8,36.6v-2.4h-1.1v-0.3h2.6v0.3h-1.1v2.4H126.8z"/>
<path class="st0" d="M45.5,18.4l0.7-5.7H55v1.4h2.8V0H42.3v2.8H55v7.1H43.6l-1.3,11.3h11.3c-0.1,3.1-0.3,6.1-0.6,8.9
	c-0.2,2.2-1.3,3.5-3.3,3.5c-1.1,0-3-0.1-5.7-0.2c0.3,1.1,0.5,2.2,0.6,3.2c2.5,0,4.3,0,5.4,0c3.7,0,5.7-2.3,6-6.5
	c0.3-5,0.6-9,0.7-11.8H45.5z M71.6,15.2l-2.8,1.1c1.8,4.8,3.6,9.8,5.3,15c-3.5,0.3-7.8,0.7-13.1,1.1c3.2-8.7,6.4-19.3,9.6-31.8
	L66.9,0c-1.8,8.7-4.5,18.3-8,28.9c-0.7,2.1-1.6,3.5-2.5,4.1l1.3,3.5c0.9-0.3,1.8-0.5,2.8-0.7c4.3-0.5,9.1-1,14.5-1.6
	c0.5,1.5,0.3,0.8,0.7,2.3l3.2-1.5C77.2,30.1,75.2,24.9,71.6,15.2z"/>
<path class="st0" d="M39.5,0H0v36.7h39.5L39.5,0z M34.9,34.5c-7.9-3.2-12.5-7.9-15-15.2C18,26,13.3,31,4.6,35
	c-0.5-0.7-1.4-1.6-2.4-2.7c9.1-3.8,14-9,15.5-15.9H3v-2.8h15.1c0.1-1.7,0.2-4.2,0.2-8.4H4.3V2.3h31.4v2.8H21.5c0,2.5-0.1,5-0.2,8.4
	H37v2.8H21.8c2.3,7.6,7,12.5,15.6,15.1C36.4,32.7,35.6,33.7,34.9,34.5z"/>

</svg>
