<svg id="Layer_1" xmlns="http://www.w3.org/2000/svg" viewBox="0 0 198 60"><style>.st0{fill:#FCB813;} .st1{fill:#035BA9;}</style><path id="XMLID_47_" class="st0" d="M30.3 22.4L22.6 30l7.7 7.6 7.6-7.6z"/><path id="XMLID_46_" class="st1" d="M28.9 54.2C16 53.5 5.8 42.9 5.8 30c0-11.1 7.5-20.4 17.7-23.3v10l-9 9c-2.3 2.3-2.3 6.1 0 8.5L26 45.7c.8.8 1.8 1.3 2.8 1.6v-4.8c0-1.6 0-1.7-1.2-2.9l-7-7c-2.2-2.2-2.2-3 0-5.2l7-7c1.1-1.1 1.2-1.3 1.2-2.9V0C12.8.7 0 13.9 0 30s12.8 29.3 28.9 30v-5.8z"/><path id="XMLID_45_" class="st1" d="M31.7 0v5.8c12.8.7 23 11.3 23 24.2 0 11-7.5 20.4-17.7 23.3v-10l9-9c2.3-2.3 2.3-6.1 0-8.5L34.5 14.3c-.8-.8-1.8-1.3-2.8-1.6v4.8c0 1.6 0 1.7 1.2 2.9l7 7c2.2 2.2 2.2 3 0 5.2l-7 7c-1.1 1.1-1.2 1.3-1.2 2.9V60c16-.7 28.9-13.9 28.9-30C60.5 13.9 47.7.7 31.7 0"/><g id="XMLID_1_"><path id="XMLID_43_" class="st1" d="M193.2 6.7h4.7v27.1h-4.7z"/><path id="XMLID_40_" class="st1" d="M186.5 14.1c-1.2-1-3.4-1.5-5.8-1.5-3.4 0-7 1.3-7 1.3v3.9s4.8-1.2 7-1.2c1.6 0 2.5.5 2.8 1.3.1.2.1.5.1.7v.8s-6 1.4-7.1 1.8c-1.1.4-2.3.8-3 1.7-.6.8-.9 1.6-.9 2.7v3.8c0 2.5 2.3 4.6 7.1 4.6h1.5c4.8 0 7.1-2.1 7.1-4.6V18c0-1.6-.6-2.9-1.8-3.9zm-6.1 16.1c-2.1 0-3-.7-3-1.9v-1.7c0-.9.4-1.4 1.7-1.8 1-.3 4.5-1.1 4.5-1.1v4.7c0 1.1-1.1 1.8-3.2 1.8z"/><path id="XMLID_39_" class="st1" d="M122 6.7h4.7v27.1H122z"/><path id="XMLID_38_" class="st1" d="M112.3 6.7h4.7v27.1h-4.7z"/><path id="XMLID_37_" class="st1" d="M101.8 29.9s-1.6.3-3.2.3c-2.6 0-3-1-3-2.4v-15h-4.7V29c0 2.5 2.3 5.1 7.1 5.1h.7c3.2 0 7.8-.8 7.8-.8V12.9h-4.7v17z"/><path id="XMLID_36_" class="st1" d="M73.3 33.8h4.8V20.6h7.5v-4.1h-7.5v-6.1h9.3V6.7H73.3z"/><path id="XMLID_33_" class="st1" d="M140.3 12.6h-1.5c-4.8 0-7.1 2.1-7.1 4.6v8.3c0 .4.1.8.2 1.4.6 3.2 3.3 3.5 7.7 3.9 1.2.1 3.1.3 3.1.3v.5c0 1.2-.2 2.6-1.6 2.9-2.6.7-8.7-.5-8.7-.5l.9 3.7s6.5.9 9.8.2c3.9-.8 4.5-3.2 4.5-6.8v-14c-.1-2.4-2.5-4.5-7.3-4.5zm2.4 14.7s-1.9-.2-3-.3c-2.3-.2-3.2-.6-3.2-2v-6.6c0-1.2.9-1.9 3-1.9s3.2.7 3.2 1.9v8.9z"/><path id="XMLID_30_" class="st1" d="M160.8 12.6h-1.5c-4.8 0-7.1 2.1-7.1 4.6v12.2c0 2.5 2.3 4.6 7.1 4.6h1.5c4.8 0 7.1-2.1 7.1-4.6V17.2c0-2.5-2.4-4.6-7.1-4.6zm2.3 15.7c0 1.2-1.1 1.9-3.2 1.9s-3-.7-3-1.9v-9.8c0-1.2.9-1.9 3-1.9s3.2.7 3.2 1.9v9.8z"/><path id="XMLID_29_" class="st1" d="M173.6 45.2h-.3c-.8 0-1.8.1-2.3.2-.4-.1-.8-.2-1.4-.2h-.3c-1.2 0-2.7.3-2.7.3v7.9h1.8v-6.6s.3-.1 1-.1c1 0 1.2.4 1.2.9v5.8h1.8v-6.6s.4-.1 1-.1c1 0 1.2.4 1.2.9v5.8h1.8v-6.2c0-1.1-.9-2-2.8-2"/><path id="XMLID_26_" class="st1" d="M162.3 45.2h-.6c-1.9 0-2.7.8-2.7 1.8v4.4c0 .6.2 1.1.7 1.5.5.4 1.3.6 2.3.6 1.3 0 2.7-.5 2.7-.5v-1.5s-1.9.5-2.7.5c-.6 0-1-.2-1.1-.5 0-.1-.1-.2-.1-.3v-.3s2.3-.5 2.8-.7c.4-.2.9-.3 1.1-.7.2-.3.3-.6.3-1.1v-1.5c0-.9-.9-1.7-2.7-1.7zm.9 2.9c0 .4-.1.5-.7.7-.4.1-1.7.4-1.7.4v-1.8c0-.5.4-.7 1.2-.7.8 0 1.2.3 1.2.7v.7z"/><path id="XMLID_23_" class="st1" d="M181.3 45.2h-.6c-1.9 0-2.8.8-2.8 1.8v4.4c0 .6.2 1.1.7 1.5.5.4 1.3.6 2.3.6 1.3 0 2.7-.5 2.7-.5v-1.5s-1.9.5-2.7.5c-.6 0-1-.2-1.1-.5 0-.1-.1-.2-.1-.3v-.3s2.3-.5 2.8-.7c.4-.2.9-.3 1.1-.7.2-.3.3-.6.3-1.1v-1.5c.1-.9-.8-1.7-2.6-1.7zm.9 2.9c0 .4-.1.5-.7.7-.4.1-1.7.4-1.7.4v-1.8c0-.5.4-.7 1.2-.7.8 0 1.2.3 1.2.7v.7z"/><path id="XMLID_22_" class="st1" d="M197.1 52.1h-.4c-.4 0-.7 0-1-.1-.2-.1-.4-.2-.5-.3-.1-.1-.2-.2-.2-.4 0-.1-.1-.3-.1-.4v-4.3h2.9v-1.4h-2.9V44h-1.8v7.2c0 .1 0 .3.1.6s.2.5.5.8c.2.2.6.5 1.1.6.5.2 1.2.3 2 .3h1.2l-.4-1.3h-.5z"/><path id="XMLID_21_" class="st1" d="M188.7 45.2h-.3c-1.2 0-3 .3-3 .3v7.9h1.8v-6.6s.6-.1 1.2-.1c1 0 1.2.4 1.2.9v5.8h1.8v-6.2c0-1.1-.9-2-2.7-2"/><path id="XMLID_18_" class="st1" d="M149.1 45.7c-.5-.4-1.3-.6-2.3-.6-1.3 0-2.7.5-2.7.5v1.5s1.9-.5 2.7-.5c.6 0 1 .2 1.1.5 0 .1.1.2.1.3v.3s-2.3.5-2.8.7c-.4.2-.9.3-1.1.7-.2.3-.3.6-.3 1.1v1.5c0 1 .9 1.8 2.8 1.8h.6c1.9 0 2.7-.8 2.7-1.8v-4.4c-.1-.7-.3-1.2-.8-1.6zm-2.3 6.3c-.8 0-1.2-.3-1.2-.7v-.7c0-.4.1-.5.7-.7.4-.1 1.7-.4 1.7-.4v1.8c0 .4-.4.7-1.2.7z"/><path id="XMLID_15_" class="st1" d="M133.9 45.7c-.5-.4-1.3-.6-2.3-.6-1.3 0-2.7.5-2.7.5v1.5s1.9-.5 2.7-.5c.6 0 1 .2 1.1.5 0 .1.1.2.1.3v.3s-2.3.5-2.8.7c-.4.2-.9.3-1.1.7-.2.3-.3.6-.3 1.1v1.5c0 1 .9 1.8 2.8 1.8h.6c1.9 0 2.8-.8 2.8-1.8v-4.4c-.2-.7-.4-1.2-.9-1.6zm-2.4 6.3c-.8 0-1.2-.3-1.2-.7v-.7c0-.4.1-.5.7-.7.4-.1 1.7-.4 1.7-.4v1.8c.1.4-.3.7-1.2.7z"/><path id="XMLID_14_" class="st1" d="M139.5 45.2h-.3c-1.2 0-3 .3-3 .3v7.9h1.8v-6.6s.6-.1 1.2-.1c1 0 1.2.4 1.2.9v5.8h1.8v-6.2c.1-1.1-.8-2-2.7-2"/><path id="XMLID_13_" class="st1" d="M125.4 42.9h-.6l-2.1 6.9-2.1-6.9h-2.4v10.5h1.8v-7.7l1.8 5.9h1.7l1.9-5.9v7.7h1.7V42.9h-.8z"/><path id="XMLID_10_" class="st1" d="M154.6 45.2h-.6c-1.9 0-2.8.8-2.8 1.8v3.2c0 .1 0 .3.1.5.2 1.2 1.3 1.3 3 1.5.5.1 1.2.1 1.2.1v.2c0 .5-.1 1-.6 1.1-1 .3-3.4-.2-3.4-.2l.3 1.4s2.5.3 3.8.1c1.5-.3 1.7-1.3 1.7-2.6v-5.4c.1-.9-.8-1.7-2.7-1.7zm1 5.6s-.7-.1-1.2-.1c-.9-.1-1.2-.2-1.2-.8v-2.5c0-.5.3-.7 1.2-.7.8 0 1.2.3 1.2.7v3.4z"/><path id="XMLID_7_" class="st1" d="M79.4 42.9h-2.2l-3.9 10.5h1.8l.8-2.3h4.8l.9 2.3h1.8l-4-10.5zm-2.8 6.4l1.8-4.1 1.8 4.1h-3.6z"/><path id="XMLID_6_" class="st1" d="M93 51.1l1.8-.3c.1.4.2.7.5.9.2.2.6.3 1 .3.5 0 .8-.1 1-.3.2-.1.2-.3.2-.5s0-.3-.1-.4c-.1-.1-.3-.2-.6-.3-1.4-.4-2.3-.7-2.7-1-.5-.4-.8-1-.8-1.7s.2-1.2.7-1.7c.5-.5 1.2-.7 2.1-.7.9 0 1.6.2 2 .5.4.3.7.8.9 1.5l-1.7.4c-.1-.3-.2-.5-.4-.7-.2-.2-.5-.2-.9-.2-.5 0-.8.1-1 .2-.1.1-.2.2-.2.4 0 .1.1.3.2.4.2.1.7.3 1.6.6.9.2 1.6.5 2 .9.4.4.6.9.6 1.5 0 .7-.3 1.3-.8 1.8s-1.3.8-2.3.8c-.9 0-1.6-.2-2.2-.6-.4-.5-.7-1.1-.9-1.8"/><path id="XMLID_3_" class="st1" d="M104 45.2h-.6c-1.9 0-2.8.8-2.8 1.8v4.4c0 .6.2 1.1.7 1.5.5.4 1.3.6 2.3.6 1.3 0 2.7-.5 2.7-.5v-1.5s-1.9.5-2.7.5c-.6 0-1-.2-1.1-.5 0-.1-.1-.2-.1-.3v-.3s2.3-.5 2.8-.7c.4-.2.9-.3 1.1-.7.2-.3.3-.6.3-1.1V47c.1-1-.7-1.8-2.6-1.8zm.9 2.9c0 .4-.1.5-.7.7-.4.1-1.7.4-1.7.4v-1.8c0-.5.4-.7 1.2-.7.8 0 1.2.3 1.2.7v.7z"/><path id="XMLID_2_" class="st1" d="M112.4 52.1h-.4c-.4 0-.7 0-1-.1-.2-.1-.4-.2-.5-.3-.1-.1-.2-.2-.2-.4 0-.1-.1-.3-.1-.4v-4.3h2.9v-1.4h-2.9V44h-1.8v7.2c0 .1 0 .3.1.6s.2.5.5.8c.2.2.6.5 1.1.6.5.2 1.2.3 2 .3h1.2l-.4-1.3h-.5z"/><path id="XMLID_48_" class="st1" d="M85.1 51.1l1.8-.3c.1.4.2.7.5.9.2.2.6.3 1 .3.5 0 .8-.1 1-.3.2-.1.2-.3.2-.5s0-.3-.1-.4c-.1-.1-.3-.2-.6-.3-1.4-.4-2.3-.7-2.7-1-.5-.4-.8-1-.8-1.7s.2-1.2.7-1.7c.5-.5 1.2-.7 2.1-.7.9 0 1.6.2 2 .5.4.3.7.8.9 1.5l-1.7.4c-.1-.3-.2-.5-.4-.7-.2-.2-.5-.2-.9-.2-.5 0-.8.1-1 .2-.1.1-.2.2-.2.4 0 .1.1.3.2.4.2.1.7.3 1.6.6.9.2 1.6.5 2 .9.4.4.6.9.6 1.5 0 .7-.3 1.3-.8 1.8s-1.3.8-2.3.8c-.9 0-1.6-.2-2.2-.6-.4-.5-.7-1.1-.9-1.8"/></g></svg>